<mxfile host="65bd71144e">
    <diagram id="_KxVs-y-PRfUbW2bJWqo" name="Page-1">
        <mxGraphModel dx="1593" dy="1812" grid="1" gridSize="10" guides="1" tooltips="1" connect="1" arrows="1" fold="1" page="1" pageScale="1" pageWidth="850" pageHeight="1100" math="0" shadow="0">
            <root>
                <mxCell id="0"/>
                <mxCell id="1" parent="0"/>
                <mxCell id="50" value="" style="rounded=0;whiteSpace=wrap;html=1;fillColor=#FFFFFF;" vertex="1" parent="1">
                    <mxGeometry x="50" y="34" width="1120" height="410" as="geometry"/>
                </mxCell>
                <mxCell id="5" value="&amp;lt;&amp;lt;client&amp;gt;&amp;gt;&lt;br&gt;&amp;lt;&amp;lt;subsystem&amp;gt;&amp;gt;&lt;br&gt;Client" style="rounded=0;whiteSpace=wrap;html=1;" vertex="1" parent="1">
                    <mxGeometry x="100" y="180" width="120" height="60" as="geometry"/>
                </mxCell>
                <mxCell id="6" value="&amp;lt;&amp;lt;coordinator&amp;gt;&amp;gt;&lt;br&gt;ApiGatway" style="rounded=0;whiteSpace=wrap;html=1;" vertex="1" parent="1">
                    <mxGeometry x="400" y="180" width="120" height="60" as="geometry"/>
                </mxCell>
                <mxCell id="8" value="&amp;lt;&amp;lt;service&amp;gt;&amp;gt;&lt;br&gt;&amp;lt;&amp;lt;subsytem&amp;gt;&amp;gt;&lt;br&gt;IdentityService" style="rounded=0;whiteSpace=wrap;html=1;" vertex="1" parent="1">
                    <mxGeometry x="710" y="60" width="120" height="60" as="geometry"/>
                </mxCell>
                <mxCell id="9" value="&amp;lt;&amp;lt;service&amp;gt;&amp;gt;&lt;br style=&quot;border-color: var(--border-color);&quot;&gt;&amp;lt;&amp;lt;subsytem&amp;gt;&amp;gt;&lt;br style=&quot;border-color: var(--border-color);&quot;&gt;ConversationService" style="rounded=0;whiteSpace=wrap;html=1;" vertex="1" parent="1">
                    <mxGeometry x="710" y="150" width="120" height="60" as="geometry"/>
                </mxCell>
                <mxCell id="10" value="&amp;lt;&amp;lt;service&amp;gt;&amp;gt;&lt;br style=&quot;border-color: var(--border-color);&quot;&gt;&amp;lt;&amp;lt;subsytem&amp;gt;&amp;gt;&lt;br style=&quot;border-color: var(--border-color);&quot;&gt;UploadService" style="rounded=0;whiteSpace=wrap;html=1;" vertex="1" parent="1">
                    <mxGeometry x="710" y="340" width="120" height="60" as="geometry"/>
                </mxCell>
                <mxCell id="11" value="&amp;lt;&amp;lt;service&amp;gt;&amp;gt;&lt;br style=&quot;border-color: var(--border-color);&quot;&gt;&amp;lt;&amp;lt;subsytem&amp;gt;&amp;gt;&lt;br style=&quot;border-color: var(--border-color);&quot;&gt;PostService" style="rounded=0;whiteSpace=wrap;html=1;" vertex="1" parent="1">
                    <mxGeometry x="710" y="240" width="120" height="60" as="geometry"/>
                </mxCell>
                <mxCell id="13" value="&amp;lt;&amp;lt;coordinator&amp;gt;&amp;gt;&lt;br style=&quot;border-color: var(--border-color);&quot;&gt;Rabbitmq" style="rounded=0;whiteSpace=wrap;html=1;" vertex="1" parent="1">
                    <mxGeometry x="980" y="190" width="120" height="60" as="geometry"/>
                </mxCell>
                <mxCell id="14" value="" style="endArrow=none;html=1;exitX=0.997;exitY=0.174;exitDx=0;exitDy=0;entryX=0;entryY=0.5;entryDx=0;entryDy=0;exitPerimeter=0;" edge="1" parent="1" source="6" target="8">
                    <mxGeometry width="50" height="50" relative="1" as="geometry">
                        <mxPoint x="550" y="200" as="sourcePoint"/>
                        <mxPoint x="600" y="150" as="targetPoint"/>
                    </mxGeometry>
                </mxCell>
                <mxCell id="22" value="1" style="edgeLabel;html=1;align=center;verticalAlign=middle;resizable=0;points=[];" vertex="1" connectable="0" parent="14">
                    <mxGeometry x="-0.6718" y="-1" relative="1" as="geometry">
                        <mxPoint x="-24" y="-1" as="offset"/>
                    </mxGeometry>
                </mxCell>
                <mxCell id="26" value="1" style="edgeLabel;html=1;align=center;verticalAlign=middle;resizable=0;points=[];" vertex="1" connectable="0" parent="14">
                    <mxGeometry x="0.7246" y="1" relative="1" as="geometry">
                        <mxPoint x="17" y="-23" as="offset"/>
                    </mxGeometry>
                </mxCell>
                <mxCell id="15" value="" style="endArrow=none;html=1;exitX=1.006;exitY=0.441;exitDx=0;exitDy=0;entryX=0;entryY=0.5;entryDx=0;entryDy=0;exitPerimeter=0;" edge="1" parent="1" source="6" target="9">
                    <mxGeometry width="50" height="50" relative="1" as="geometry">
                        <mxPoint x="480" y="320" as="sourcePoint"/>
                        <mxPoint x="670" y="200" as="targetPoint"/>
                    </mxGeometry>
                </mxCell>
                <mxCell id="23" value="1" style="edgeLabel;html=1;align=center;verticalAlign=middle;resizable=0;points=[];" vertex="1" connectable="0" parent="15">
                    <mxGeometry x="-0.5828" relative="1" as="geometry">
                        <mxPoint x="-34" y="-5" as="offset"/>
                    </mxGeometry>
                </mxCell>
                <mxCell id="27" value="1" style="edgeLabel;html=1;align=center;verticalAlign=middle;resizable=0;points=[];" vertex="1" connectable="0" parent="15">
                    <mxGeometry x="0.832" y="1" relative="1" as="geometry">
                        <mxPoint x="6" y="-11" as="offset"/>
                    </mxGeometry>
                </mxCell>
                <mxCell id="16" value="" style="endArrow=none;html=1;exitX=0.999;exitY=0.699;exitDx=0;exitDy=0;entryX=0;entryY=0.5;entryDx=0;entryDy=0;exitPerimeter=0;" edge="1" parent="1" source="6" target="11">
                    <mxGeometry width="50" height="50" relative="1" as="geometry">
                        <mxPoint x="470" y="350" as="sourcePoint"/>
                        <mxPoint x="660" y="320" as="targetPoint"/>
                    </mxGeometry>
                </mxCell>
                <mxCell id="24" value="1" style="edgeLabel;html=1;align=center;verticalAlign=middle;resizable=0;points=[];" vertex="1" connectable="0" parent="16">
                    <mxGeometry x="-0.42" y="1" relative="1" as="geometry">
                        <mxPoint x="-47" y="-20" as="offset"/>
                    </mxGeometry>
                </mxCell>
                <mxCell id="28" value="1" style="edgeLabel;html=1;align=center;verticalAlign=middle;resizable=0;points=[];" vertex="1" connectable="0" parent="16">
                    <mxGeometry x="0.6898" relative="1" as="geometry">
                        <mxPoint x="20" y="-5" as="offset"/>
                    </mxGeometry>
                </mxCell>
                <mxCell id="17" value="" style="endArrow=none;html=1;exitX=1.001;exitY=0.886;exitDx=0;exitDy=0;entryX=0;entryY=0.5;entryDx=0;entryDy=0;exitPerimeter=0;" edge="1" parent="1" source="6" target="10">
                    <mxGeometry width="50" height="50" relative="1" as="geometry">
                        <mxPoint x="490" y="320" as="sourcePoint"/>
                        <mxPoint x="680" y="380" as="targetPoint"/>
                    </mxGeometry>
                </mxCell>
                <mxCell id="25" value="1" style="edgeLabel;html=1;align=center;verticalAlign=middle;resizable=0;points=[];" vertex="1" connectable="0" parent="17">
                    <mxGeometry x="-0.3013" y="-1" relative="1" as="geometry">
                        <mxPoint x="-61" y="-32" as="offset"/>
                    </mxGeometry>
                </mxCell>
                <mxCell id="29" value="1" style="edgeLabel;html=1;align=center;verticalAlign=middle;resizable=0;points=[];" vertex="1" connectable="0" parent="17">
                    <mxGeometry x="0.7895" relative="1" as="geometry">
                        <mxPoint x="13" y="-2" as="offset"/>
                    </mxGeometry>
                </mxCell>
                <mxCell id="18" value="" style="endArrow=none;html=1;exitX=1;exitY=0.5;exitDx=0;exitDy=0;entryX=0.5;entryY=0;entryDx=0;entryDy=0;" edge="1" parent="1" source="8" target="13">
                    <mxGeometry width="50" height="50" relative="1" as="geometry">
                        <mxPoint x="930" y="200" as="sourcePoint"/>
                        <mxPoint x="1120" y="80" as="targetPoint"/>
                    </mxGeometry>
                </mxCell>
                <mxCell id="30" value="1...*" style="edgeLabel;html=1;align=center;verticalAlign=middle;resizable=0;points=[];" vertex="1" connectable="0" parent="18">
                    <mxGeometry x="-0.3225" y="-1" relative="1" as="geometry">
                        <mxPoint x="-55" y="-45" as="offset"/>
                    </mxGeometry>
                </mxCell>
                <mxCell id="34" value="1" style="edgeLabel;html=1;align=center;verticalAlign=middle;resizable=0;points=[];" vertex="1" connectable="0" parent="18">
                    <mxGeometry x="0.8224" y="1" relative="1" as="geometry">
                        <mxPoint x="8" y="-10" as="offset"/>
                    </mxGeometry>
                </mxCell>
                <mxCell id="19" value="" style="endArrow=none;html=1;exitX=1;exitY=0.5;exitDx=0;exitDy=0;entryX=0;entryY=0.25;entryDx=0;entryDy=0;" edge="1" parent="1" source="9" target="13">
                    <mxGeometry width="50" height="50" relative="1" as="geometry">
                        <mxPoint x="760" y="200" as="sourcePoint"/>
                        <mxPoint x="969.9999999999998" y="300" as="targetPoint"/>
                    </mxGeometry>
                </mxCell>
                <mxCell id="31" value="1...*" style="edgeLabel;html=1;align=center;verticalAlign=middle;resizable=0;points=[];" vertex="1" connectable="0" parent="19">
                    <mxGeometry x="-0.8088" relative="1" as="geometry">
                        <mxPoint x="-2" y="-12" as="offset"/>
                    </mxGeometry>
                </mxCell>
                <mxCell id="35" value="1" style="edgeLabel;html=1;align=center;verticalAlign=middle;resizable=0;points=[];" vertex="1" connectable="0" parent="19">
                    <mxGeometry x="0.7613" y="2" relative="1" as="geometry">
                        <mxPoint y="-10" as="offset"/>
                    </mxGeometry>
                </mxCell>
                <mxCell id="20" value="" style="endArrow=none;html=1;exitX=1.003;exitY=0.59;exitDx=0;exitDy=0;exitPerimeter=0;entryX=0.003;entryY=0.706;entryDx=0;entryDy=0;entryPerimeter=0;" edge="1" parent="1" source="11" target="13">
                    <mxGeometry width="50" height="50" relative="1" as="geometry">
                        <mxPoint x="810" y="290" as="sourcePoint"/>
                        <mxPoint x="980" y="220" as="targetPoint"/>
                    </mxGeometry>
                </mxCell>
                <mxCell id="32" value="1...*" style="edgeLabel;html=1;align=center;verticalAlign=middle;resizable=0;points=[];" vertex="1" connectable="0" parent="20">
                    <mxGeometry x="-0.8442" y="2" relative="1" as="geometry">
                        <mxPoint y="-10" as="offset"/>
                    </mxGeometry>
                </mxCell>
                <mxCell id="36" value="1" style="edgeLabel;html=1;align=center;verticalAlign=middle;resizable=0;points=[];" vertex="1" connectable="0" parent="20">
                    <mxGeometry x="0.8011" y="1" relative="1" as="geometry">
                        <mxPoint x="5" y="-11" as="offset"/>
                    </mxGeometry>
                </mxCell>
                <mxCell id="21" value="" style="endArrow=none;html=1;exitX=1;exitY=0.5;exitDx=0;exitDy=0;entryX=0.5;entryY=1;entryDx=0;entryDy=0;" edge="1" parent="1" source="10" target="13">
                    <mxGeometry width="50" height="50" relative="1" as="geometry">
                        <mxPoint x="840.3599999999999" y="395.4" as="sourcePoint"/>
                        <mxPoint x="989.9999999999998" y="340" as="targetPoint"/>
                    </mxGeometry>
                </mxCell>
                <mxCell id="33" value="1...*" style="edgeLabel;html=1;align=center;verticalAlign=middle;resizable=0;points=[];" vertex="1" connectable="0" parent="21">
                    <mxGeometry x="-0.8054" y="-1" relative="1" as="geometry">
                        <mxPoint x="10" y="70" as="offset"/>
                    </mxGeometry>
                </mxCell>
                <mxCell id="37" value="1" style="edgeLabel;html=1;align=center;verticalAlign=middle;resizable=0;points=[];" vertex="1" connectable="0" parent="21">
                    <mxGeometry x="0.6845" y="-1" relative="1" as="geometry">
                        <mxPoint x="23" y="-5" as="offset"/>
                    </mxGeometry>
                </mxCell>
                <mxCell id="94" value="1...*" style="edgeLabel;html=1;align=center;verticalAlign=middle;resizable=0;points=[];fontSize=9;" vertex="1" connectable="0" parent="21">
                    <mxGeometry x="-0.8961" y="1" relative="1" as="geometry">
                        <mxPoint y="17" as="offset"/>
                    </mxGeometry>
                </mxCell>
                <mxCell id="46" value="" style="endArrow=none;html=1;exitX=1;exitY=0.5;exitDx=0;exitDy=0;entryX=-0.012;entryY=0.459;entryDx=0;entryDy=0;entryPerimeter=0;" edge="1" parent="1" source="5" target="6">
                    <mxGeometry width="50" height="50" relative="1" as="geometry">
                        <mxPoint x="150.0000000000001" y="300.00000000000006" as="sourcePoint"/>
                        <mxPoint x="340.36" y="199.56" as="targetPoint"/>
                    </mxGeometry>
                </mxCell>
                <mxCell id="47" value="1...*" style="edgeLabel;html=1;align=center;verticalAlign=middle;resizable=0;points=[];" vertex="1" connectable="0" parent="46">
                    <mxGeometry x="-0.6718" y="-1" relative="1" as="geometry">
                        <mxPoint x="-9" y="-11" as="offset"/>
                    </mxGeometry>
                </mxCell>
                <mxCell id="48" value="1" style="edgeLabel;html=1;align=center;verticalAlign=middle;resizable=0;points=[];" vertex="1" connectable="0" parent="46">
                    <mxGeometry x="0.7246" y="1" relative="1" as="geometry">
                        <mxPoint x="17" y="-7" as="offset"/>
                    </mxGeometry>
                </mxCell>
                <mxCell id="49" value="" style="triangle;whiteSpace=wrap;html=1;fillColor=#000000;rotation=0;" vertex="1" parent="1">
                    <mxGeometry x="310" y="194" width="10" height="10" as="geometry"/>
                </mxCell>
                <mxCell id="51" value="&lt;font style=&quot;font-size: 9px;&quot;&gt;&amp;lt;&amp;lt;software system&amp;gt;&amp;gt;&lt;br&gt;ChatAppSystem&lt;br&gt;&lt;/font&gt;" style="text;html=1;strokeColor=none;fillColor=none;align=left;verticalAlign=middle;whiteSpace=wrap;rounded=0;" vertex="1" parent="1">
                    <mxGeometry x="60" y="40" width="140" height="30" as="geometry"/>
                </mxCell>
                <mxCell id="53" value="&amp;lt;&amp;lt;external system&amp;gt;&amp;gt;&lt;br&gt;Web Browser" style="rounded=0;whiteSpace=wrap;html=1;" vertex="1" parent="1">
                    <mxGeometry x="-180" y="101.5" width="120" height="61" as="geometry"/>
                </mxCell>
                <mxCell id="54" value="&amp;lt;&amp;lt;external input device&amp;gt;&amp;gt;&lt;br&gt;Keyboard&lt;div&gt;TouchScreen&lt;/div&gt;" style="rounded=0;whiteSpace=wrap;html=1;" vertex="1" parent="1">
                    <mxGeometry x="-180" y="250" width="120" height="61" as="geometry"/>
                </mxCell>
                <mxCell id="55" value="" style="endArrow=none;html=1;fontSize=9;entryX=0;entryY=0.5;entryDx=0;entryDy=0;exitX=1;exitY=0.5;exitDx=0;exitDy=0;" edge="1" parent="1" source="53" target="5">
                    <mxGeometry width="50" height="50" relative="1" as="geometry">
                        <mxPoint x="-80" y="210" as="sourcePoint"/>
                        <mxPoint x="-30" y="160" as="targetPoint"/>
                    </mxGeometry>
                </mxCell>
                <mxCell id="63" value="1" style="edgeLabel;html=1;align=center;verticalAlign=middle;resizable=0;points=[];fontSize=9;" vertex="1" connectable="0" parent="55">
                    <mxGeometry x="0.8085" relative="1" as="geometry">
                        <mxPoint as="offset"/>
                    </mxGeometry>
                </mxCell>
                <mxCell id="65" value="1..*" style="edgeLabel;html=1;align=center;verticalAlign=middle;resizable=0;points=[];fontSize=9;" vertex="1" connectable="0" parent="55">
                    <mxGeometry x="-0.8053" relative="1" as="geometry">
                        <mxPoint x="-5" y="-19" as="offset"/>
                    </mxGeometry>
                </mxCell>
                <mxCell id="56" value="" style="endArrow=none;html=1;fontSize=9;entryX=0;entryY=0.75;entryDx=0;entryDy=0;exitX=1;exitY=0.5;exitDx=0;exitDy=0;" edge="1" parent="1" source="54" target="5">
                    <mxGeometry width="50" height="50" relative="1" as="geometry">
                        <mxPoint x="-130" y="200.00000000000006" as="sourcePoint"/>
                        <mxPoint x="30" y="278" as="targetPoint"/>
                    </mxGeometry>
                </mxCell>
                <mxCell id="64" value="1" style="edgeLabel;html=1;align=center;verticalAlign=middle;resizable=0;points=[];fontSize=9;" vertex="1" connectable="0" parent="56">
                    <mxGeometry x="0.8881" y="1" relative="1" as="geometry">
                        <mxPoint as="offset"/>
                    </mxGeometry>
                </mxCell>
                <mxCell id="66" value="1..*" style="edgeLabel;html=1;align=center;verticalAlign=middle;resizable=0;points=[];fontSize=9;" vertex="1" connectable="0" parent="56">
                    <mxGeometry x="-0.7937" y="1" relative="1" as="geometry">
                        <mxPoint x="-6" y="16" as="offset"/>
                    </mxGeometry>
                </mxCell>
                <mxCell id="57" value="&lt;font style=&quot;font-size: 12px;&quot;&gt;&amp;lt;&amp;lt;external user&amp;gt;&amp;gt;&lt;br&gt;Manager&lt;/font&gt;" style="rounded=0;whiteSpace=wrap;html=1;" vertex="1" parent="1">
                    <mxGeometry x="230" y="-90" width="120" height="60" as="geometry"/>
                </mxCell>
                <mxCell id="58" value="" style="endArrow=none;html=1;fontSize=9;entryX=0;entryY=0.5;entryDx=0;entryDy=0;exitX=0.5;exitY=0;exitDx=0;exitDy=0;" edge="1" parent="1" source="5" target="57">
                    <mxGeometry width="50" height="50" relative="1" as="geometry">
                        <mxPoint x="280" y="120" as="sourcePoint"/>
                        <mxPoint x="330" y="70" as="targetPoint"/>
                        <Array as="points">
                            <mxPoint x="160" y="-60"/>
                        </Array>
                    </mxGeometry>
                </mxCell>
                <mxCell id="61" value="1...*" style="edgeLabel;html=1;align=center;verticalAlign=middle;resizable=0;points=[];fontSize=9;" vertex="1" connectable="0" parent="58">
                    <mxGeometry x="0.2071" y="-2" relative="1" as="geometry">
                        <mxPoint x="48" y="-43" as="offset"/>
                    </mxGeometry>
                </mxCell>
                <mxCell id="62" value="1" style="edgeLabel;html=1;align=center;verticalAlign=middle;resizable=0;points=[];fontSize=9;" vertex="1" connectable="0" parent="1">
                    <mxGeometry x="230" y="-40.14285714285711" as="geometry">
                        <mxPoint x="-70" y="210" as="offset"/>
                    </mxGeometry>
                </mxCell>
                <mxCell id="67" value="" style="triangle;whiteSpace=wrap;html=1;fillColor=#000000;rotation=-30;" vertex="1" parent="1">
                    <mxGeometry y="244" width="10" height="10" as="geometry"/>
                </mxCell>
                <mxCell id="68" value="" style="triangle;whiteSpace=wrap;html=1;fillColor=#000000;rotation=-149;" vertex="1" parent="1">
                    <mxGeometry x="10" y="152.5" width="10" height="10" as="geometry"/>
                </mxCell>
                <mxCell id="69" value="" style="triangle;whiteSpace=wrap;html=1;fillColor=#000000;rotation=-90;" vertex="1" parent="1">
                    <mxGeometry x="165" y="128" width="10" height="10" as="geometry"/>
                </mxCell>
                <mxCell id="70" value="Interacts with" style="text;html=1;align=center;verticalAlign=middle;whiteSpace=wrap;rounded=0;rotation=-15;" vertex="1" parent="1">
                    <mxGeometry x="-40" y="265.5" width="110" height="30" as="geometry"/>
                </mxCell>
                <mxCell id="71" value="Output to" style="text;html=1;align=center;verticalAlign=middle;whiteSpace=wrap;rounded=0;rotation=30;" vertex="1" parent="1">
                    <mxGeometry x="-20" y="120" width="70" height="30" as="geometry"/>
                </mxCell>
                <mxCell id="72" value="Interacts with" style="text;html=1;align=center;verticalAlign=middle;whiteSpace=wrap;rounded=0;rotation=0;" vertex="1" parent="1">
                    <mxGeometry x="150" y="90" width="110" height="30" as="geometry"/>
                </mxCell>
                <mxCell id="73" value="Request" style="text;html=1;align=center;verticalAlign=middle;whiteSpace=wrap;rounded=0;rotation=0;" vertex="1" parent="1">
                    <mxGeometry x="250" y="150" width="110" height="30" as="geometry"/>
                </mxCell>
                <mxCell id="74" value="" style="triangle;whiteSpace=wrap;html=1;fillColor=#000000;rotation=-180;" vertex="1" parent="1">
                    <mxGeometry x="310" y="215" width="10" height="10" as="geometry"/>
                </mxCell>
                <mxCell id="75" value="Response" style="text;html=1;align=center;verticalAlign=middle;whiteSpace=wrap;rounded=0;rotation=0;" vertex="1" parent="1">
                    <mxGeometry x="260" y="234" width="110" height="30" as="geometry"/>
                </mxCell>
                <mxCell id="78" value="" style="triangle;whiteSpace=wrap;html=1;fillColor=#000000;rotation=-165;" vertex="1" parent="1">
                    <mxGeometry x="622" y="255.5" width="13.72" height="10" as="geometry"/>
                </mxCell>
                <mxCell id="80" value="" style="triangle;whiteSpace=wrap;html=1;fillColor=#000000;rotation=14;" vertex="1" parent="1">
                    <mxGeometry x="628.14" y="234" width="13.72" height="10" as="geometry"/>
                </mxCell>
                <mxCell id="81" value="" style="triangle;whiteSpace=wrap;html=1;fillColor=#000000;rotation=-10;" vertex="1" parent="1">
                    <mxGeometry x="630" y="175" width="13.72" height="10" as="geometry"/>
                </mxCell>
                <mxCell id="82" value="" style="triangle;whiteSpace=wrap;html=1;fillColor=#000000;rotation=-180;" vertex="1" parent="1">
                    <mxGeometry x="635.72" y="194" width="13.72" height="10" as="geometry"/>
                </mxCell>
                <mxCell id="83" value="" style="triangle;whiteSpace=wrap;html=1;fillColor=#000000;rotation=-15;" vertex="1" parent="1">
                    <mxGeometry x="606.28" y="128" width="13.72" height="10" as="geometry"/>
                </mxCell>
                <mxCell id="84" value="" style="triangle;whiteSpace=wrap;html=1;fillColor=#000000;rotation=-210;" vertex="1" parent="1">
                    <mxGeometry x="614.42" y="142.5" width="13.72" height="10" as="geometry"/>
                </mxCell>
                <mxCell id="85" value="" style="triangle;whiteSpace=wrap;html=1;fillColor=#000000;rotation=30;" vertex="1" parent="1">
                    <mxGeometry x="614.42" y="290" width="13.72" height="10" as="geometry"/>
                </mxCell>
                <mxCell id="86" value="" style="triangle;whiteSpace=wrap;html=1;fillColor=#000000;rotation=-150;" vertex="1" parent="1">
                    <mxGeometry x="606.28" y="307" width="13.72" height="10" as="geometry"/>
                </mxCell>
                <mxCell id="87" value="" style="triangle;whiteSpace=wrap;html=1;fillColor=#000000;rotation=32;" vertex="1" parent="1">
                    <mxGeometry x="930" y="127" width="13.72" height="10" as="geometry"/>
                </mxCell>
                <mxCell id="88" value="" style="triangle;whiteSpace=wrap;html=1;fillColor=#000000;rotation=15;" vertex="1" parent="1">
                    <mxGeometry x="916.28" y="183" width="13.72" height="10" as="geometry"/>
                </mxCell>
                <mxCell id="89" value="" style="triangle;whiteSpace=wrap;html=1;fillColor=#000000;rotation=-15;" vertex="1" parent="1">
                    <mxGeometry x="902.56" y="240" width="13.72" height="10" as="geometry"/>
                </mxCell>
                <mxCell id="90" value="" style="triangle;whiteSpace=wrap;html=1;fillColor=#000000;rotation=-30;" vertex="1" parent="1">
                    <mxGeometry x="923.52" y="298.5" width="13.72" height="10" as="geometry"/>
                </mxCell>
                <mxCell id="95" value="" style="triangle;whiteSpace=wrap;html=1;fillColor=#000000;rotation=-210;" vertex="1" parent="1">
                    <mxGeometry x="930" y="313" width="13.72" height="10" as="geometry"/>
                </mxCell>
                <mxCell id="96" value="" style="triangle;whiteSpace=wrap;html=1;fillColor=#000000;rotation=-195;" vertex="1" parent="1">
                    <mxGeometry x="906.8" y="255" width="13.72" height="10" as="geometry"/>
                </mxCell>
                <mxCell id="97" value="" style="triangle;whiteSpace=wrap;html=1;fillColor=#000000;rotation=-165;" vertex="1" parent="1">
                    <mxGeometry x="912.8" y="198" width="13.72" height="10" as="geometry"/>
                </mxCell>
                <mxCell id="98" value="" style="triangle;whiteSpace=wrap;html=1;fillColor=#000000;rotation=-150;" vertex="1" parent="1">
                    <mxGeometry x="923.52" y="142.5" width="13.72" height="10" as="geometry"/>
                </mxCell>
            </root>
        </mxGraphModel>
    </diagram>
</mxfile>